<mxfile host="app.diagrams.net" modified="2023-05-01T07:34:09.928Z" agent="Mozilla/5.0 (X11; Linux x86_64) AppleWebKit/537.36 (KHTML, like Gecko) Chrome/112.0.0.0 Safari/537.36" etag="8w-OY5UAsp9JYeS-xFFM" version="21.2.3" type="device">
  <diagram id="C5RBs43oDa-KdzZeNtuy" name="Page-1">
    <mxGraphModel dx="448" dy="728" grid="1" gridSize="10" guides="1" tooltips="1" connect="1" arrows="1" fold="1" page="1" pageScale="1" pageWidth="827" pageHeight="1169" math="0" shadow="1">
      <root>
        <mxCell id="WIyWlLk6GJQsqaUBKTNV-0" />
        <mxCell id="WIyWlLk6GJQsqaUBKTNV-1" parent="WIyWlLk6GJQsqaUBKTNV-0" />
        <mxCell id="EfICGswIBuHXa70svHPm-9" style="edgeStyle=orthogonalEdgeStyle;rounded=0;orthogonalLoop=1;jettySize=auto;html=1;" edge="1" parent="WIyWlLk6GJQsqaUBKTNV-1" source="EfICGswIBuHXa70svHPm-1" target="EfICGswIBuHXa70svHPm-2">
          <mxGeometry relative="1" as="geometry" />
        </mxCell>
        <mxCell id="EfICGswIBuHXa70svHPm-10" style="edgeStyle=orthogonalEdgeStyle;rounded=0;orthogonalLoop=1;jettySize=auto;html=1;entryX=0.5;entryY=0;entryDx=0;entryDy=0;" edge="1" parent="WIyWlLk6GJQsqaUBKTNV-1" source="EfICGswIBuHXa70svHPm-1" target="EfICGswIBuHXa70svHPm-3">
          <mxGeometry relative="1" as="geometry" />
        </mxCell>
        <mxCell id="EfICGswIBuHXa70svHPm-1" value="BPF程序载入" style="strokeWidth=2;html=1;shape=mxgraph.flowchart.start_1;whiteSpace=wrap;" vertex="1" parent="WIyWlLk6GJQsqaUBKTNV-1">
          <mxGeometry x="170" y="310" width="100" height="60" as="geometry" />
        </mxCell>
        <mxCell id="EfICGswIBuHXa70svHPm-11" style="edgeStyle=orthogonalEdgeStyle;rounded=0;orthogonalLoop=1;jettySize=auto;html=1;entryX=0.5;entryY=0;entryDx=0;entryDy=0;" edge="1" parent="WIyWlLk6GJQsqaUBKTNV-1" source="EfICGswIBuHXa70svHPm-2" target="EfICGswIBuHXa70svHPm-4">
          <mxGeometry relative="1" as="geometry" />
        </mxCell>
        <mxCell id="EfICGswIBuHXa70svHPm-2" value="使用raw tracepoint探针探测块设备IO请求插入或者请求事件" style="rounded=1;whiteSpace=wrap;html=1;fontSize=12;glass=0;strokeWidth=1;shadow=0;" vertex="1" parent="WIyWlLk6GJQsqaUBKTNV-1">
          <mxGeometry x="80" y="450" width="120" height="60" as="geometry" />
        </mxCell>
        <mxCell id="EfICGswIBuHXa70svHPm-12" style="edgeStyle=orthogonalEdgeStyle;rounded=0;orthogonalLoop=1;jettySize=auto;html=1;entryX=0.5;entryY=0;entryDx=0;entryDy=0;" edge="1" parent="WIyWlLk6GJQsqaUBKTNV-1" source="EfICGswIBuHXa70svHPm-3" target="EfICGswIBuHXa70svHPm-5">
          <mxGeometry relative="1" as="geometry" />
        </mxCell>
        <mxCell id="EfICGswIBuHXa70svHPm-3" value="使用raw tracepoint探针探测块设备IO请求完成事件" style="rounded=1;whiteSpace=wrap;html=1;fontSize=12;glass=0;strokeWidth=1;shadow=0;" vertex="1" parent="WIyWlLk6GJQsqaUBKTNV-1">
          <mxGeometry x="240" y="450" width="120" height="60" as="geometry" />
        </mxCell>
        <mxCell id="EfICGswIBuHXa70svHPm-15" style="edgeStyle=orthogonalEdgeStyle;rounded=0;orthogonalLoop=1;jettySize=auto;html=1;" edge="1" parent="WIyWlLk6GJQsqaUBKTNV-1" source="EfICGswIBuHXa70svHPm-4" target="EfICGswIBuHXa70svHPm-8">
          <mxGeometry relative="1" as="geometry">
            <Array as="points">
              <mxPoint x="140" y="940" />
              <mxPoint x="220" y="940" />
            </Array>
          </mxGeometry>
        </mxCell>
        <mxCell id="EfICGswIBuHXa70svHPm-4" value="使用start Maps保存IO请求开始时间" style="rounded=1;whiteSpace=wrap;html=1;fontSize=12;glass=0;strokeWidth=1;shadow=0;" vertex="1" parent="WIyWlLk6GJQsqaUBKTNV-1">
          <mxGeometry x="80" y="580" width="120" height="60" as="geometry" />
        </mxCell>
        <mxCell id="EfICGswIBuHXa70svHPm-13" style="edgeStyle=orthogonalEdgeStyle;rounded=0;orthogonalLoop=1;jettySize=auto;html=1;" edge="1" parent="WIyWlLk6GJQsqaUBKTNV-1" source="EfICGswIBuHXa70svHPm-5" target="EfICGswIBuHXa70svHPm-6">
          <mxGeometry relative="1" as="geometry" />
        </mxCell>
        <mxCell id="EfICGswIBuHXa70svHPm-5" value="从start Maps中取出对应request的请求开始时间戳" style="rounded=1;whiteSpace=wrap;html=1;fontSize=12;glass=0;strokeWidth=1;shadow=0;" vertex="1" parent="WIyWlLk6GJQsqaUBKTNV-1">
          <mxGeometry x="240" y="580" width="120" height="60" as="geometry" />
        </mxCell>
        <mxCell id="EfICGswIBuHXa70svHPm-14" style="edgeStyle=orthogonalEdgeStyle;rounded=0;orthogonalLoop=1;jettySize=auto;html=1;" edge="1" parent="WIyWlLk6GJQsqaUBKTNV-1" source="EfICGswIBuHXa70svHPm-6" target="EfICGswIBuHXa70svHPm-7">
          <mxGeometry relative="1" as="geometry" />
        </mxCell>
        <mxCell id="EfICGswIBuHXa70svHPm-6" value="计算时差，统计IO响应时间的直方图数据，原子增加histp Maps中对应slots的计数" style="rounded=1;whiteSpace=wrap;html=1;fontSize=12;glass=0;strokeWidth=1;shadow=0;" vertex="1" parent="WIyWlLk6GJQsqaUBKTNV-1">
          <mxGeometry x="240" y="700" width="120" height="70" as="geometry" />
        </mxCell>
        <mxCell id="EfICGswIBuHXa70svHPm-16" style="edgeStyle=orthogonalEdgeStyle;rounded=0;orthogonalLoop=1;jettySize=auto;html=1;entryX=0.5;entryY=0;entryDx=0;entryDy=0;entryPerimeter=0;" edge="1" parent="WIyWlLk6GJQsqaUBKTNV-1" source="EfICGswIBuHXa70svHPm-7" target="EfICGswIBuHXa70svHPm-8">
          <mxGeometry relative="1" as="geometry">
            <Array as="points">
              <mxPoint x="300" y="940" />
              <mxPoint x="220" y="940" />
            </Array>
          </mxGeometry>
        </mxCell>
        <mxCell id="EfICGswIBuHXa70svHPm-7" value="删除start Maps的起始时间记录" style="rounded=1;whiteSpace=wrap;html=1;fontSize=12;glass=0;strokeWidth=1;shadow=0;" vertex="1" parent="WIyWlLk6GJQsqaUBKTNV-1">
          <mxGeometry x="240" y="830" width="120" height="70" as="geometry" />
        </mxCell>
        <mxCell id="EfICGswIBuHXa70svHPm-8" value="流程结束，等待下次事件发生" style="strokeWidth=2;html=1;shape=mxgraph.flowchart.start_1;whiteSpace=wrap;" vertex="1" parent="WIyWlLk6GJQsqaUBKTNV-1">
          <mxGeometry x="170" y="970" width="100" height="60" as="geometry" />
        </mxCell>
      </root>
    </mxGraphModel>
  </diagram>
</mxfile>
